<?xml version="1.0" encoding="UTF-8"?>
<svg viewBox="0 0 447.43 496.54" xmlns="http://www.w3.org/2000/svg">
<g transform="matrix(1.3333 0 0 -1.3333 -173.13 809.53)">
<path d="m241.8 360.08v-4.553c14.229-9.0079 30.181-14.189 46.396-15.53-0.2699-13.836-0.7725-28.257-1.7105-37.106-2.8613-26.989-43.354-26.072-62.568 4.1729-1.8159 2.8593 8.8477-0.7911 12.412 2.772-9.6769 5.8609-17.16 10.791-26.996 10.626-0.3991-6e-3 -0.6109-0.3248-0.4697-0.6978 26.77-71.354 73.331-65.317 87.313-84.776 0.2336-0.3237 0.5908-0.3237 0.8241 0 13.986 19.46 60.784 13.422 87.554 84.776 0.1409 0.373-0.0705 0.6919-0.4708 0.6978-9.8357 0.1647-17.319-4.7656-26.996-10.626 3.5662-3.5631 14.23 0.0873 12.413-2.772-19.213-30.243-59.706-31.163-62.568-4.1757-0.9394 8.8492-1.4409 23.273-1.7107 37.11 16.926 1.3986 33.568 6.9703 48.26 16.723v3.3588zm-30.376-11.348c-8.5085-0.692-16.133-1.6778-22.993-2.8755-0.1618-0.1477-0.3237-0.2968-0.4864-0.4445-2.2706-2.095-4.3367-4.3982-6.063-7.0404-0.4371-0.6551-0.8578-1.3263-1.2671-2.0094-0.4249-0.6668-0.7895-1.3938-1.0633-2.2128-0.2741-0.8172-0.4754-1.707-0.54-2.7371-0.0836-1.006-0.0575-2.1237 0.2055-3.4798 0.286-1.4584 1.4267-2.6739 2.9755-2.9758 1.3564-0.2639 2.4741-0.2909 3.4807-0.2053 1.0296 0.0644 1.9191 0.2659 2.7374 0.5409 0.8181 0.2733 1.5446 0.6375 2.213 1.0616 0.6832 0.4099 1.3541 0.83 2.0084 1.2676 2.6427 1.7243 4.9445 3.7928 7.039 6.0633 2.08 2.2893 4.2137 4.5241 6.1081 6.9991 1.9111 2.4565 3.6238 5.1134 5.4008 7.7037 0.0817 0.1151 0.163 0.229 0.2444 0.3444zm202.44-14.585c-0.2722 0.8221-0.6375 1.5469-1.0636 2.2159-0.4085 0.6831-0.828 1.3521-1.2657 2.0095-1.7263 2.641-3.7927 4.9433-6.0641 7.0381-0.3067 0.2792-0.6126 0.5599-0.9182 0.8408-6.7929 1.1111-14.321 2.0146-22.674 2.6382 0.1194-0.1678 0.2384-0.3356 0.3575-0.5035 1.7773-2.5903 3.4917-5.246 5.4019-7.7034 1.8944-2.4752 4.0278-4.7089 6.1079-6.9973 2.0942-2.2694 4.3962-4.3399 7.0392-6.0633 0.6551-0.4377 1.3252-0.8586 2.0081-1.2685 0.6684-0.4249 1.3941-0.7895 2.2141-1.0625 0.8181-0.2729 1.7076-0.4765 2.7343-0.54 1.0089-0.0844 2.1266-0.0598 3.4827 0.2053 1.4595 0.286 2.6739 1.4258 2.9758 2.9747 0.2642 1.3572 0.2897 2.4757 0.2052 3.4829-0.0643 1.0273-0.2679 1.9179-0.5408 2.7331zm-34.088 115.85c-1.4842 16.415-7.8225 32.468-19 45.85-0.6154-0.5162-1.2192-1.0457-1.8476-1.5491-0.4697-0.3688-0.9629-0.7098-1.4672-1.0403l0.0448-0.0454c0.4099-0.4124 0.2846-1.2025-0.2812-1.7654-0.563-0.565-1.3544-0.69-1.7643-0.2801l-0.5134 0.5134c0.3702-0.3694 0.2104-1.1259-0.3534-1.69-0.565-0.5636-1.3215-0.7234-1.6906-0.3544l-0.6217 0.6197c0.3189-0.3169 0.1191-1.0327-0.4458-1.5985-0.5647-0.5638-1.6521-0.3923-1.9707-0.0734l-0.273 0.2738c-1.0168-0.6114-1.9837-1.2699-2.8851-1.9936-1.2152-0.9697-2.2975-2.0718-3.3449-3.2077-2.0908-2.2773-3.9146-4.822-5.5975-7.5067-3.5394-5.1973-6.1696-11.305-13.388-12.822-0.1803-0.21-0.3512-0.4357-0.519-0.6602l0.6891-0.6877c0.3393-0.3398 0.1567-1.0734-0.4071-1.6375-0.5649-0.5647-1.2977-0.7467-1.6384-0.4079l0.3495-0.3493c0.3716-0.3693 0.2098-1.125-0.3554-1.6888-0.5616-0.565-1.3193-0.726-1.6895-0.3566l-0.5451 0.5473c-0.0822-0.0745-0.1579-0.1581-0.2412-0.2296-0.4714-0.3999-0.9743-1.7056-1.4825-2.4542 1.252-2.1067 2.1713-4.3557 2.7581-6.6728 0.8864-0.1675 2.1713-0.7387 2.7878-0.6871 0.1123 9e-3 0.2234 1e-3 0.3345 8e-3v0.7725c0 0.5224 0.6475 0.9442 1.4457 0.9431 0.7982 0 1.4476-0.4207 1.4457-0.9451l1e-3 -0.4921c0 0.4793 0.646 0.8697 1.4443 0.8685 0.7993 1e-3 1.4476-0.3883 1.4445-0.8696l1e-3 -0.974c0.2789-0.0377 0.557-0.0774 0.8331-0.0984 6.1773 4.0309 12.356 1.5727 18.534 0.3991 3.0886-0.7069 6.1764-1.2163 9.2673-1.3504 1.5435-0.0623 3.0883-0.0765 4.6304 0.0984 1.1517 0.1244 2.3012 0.3424 3.4512 0.6315v0.3853c8e-4 0.4495 0.6471 1.3413 1.4454 1.3402 0.7971 1e-3 1.4456-0.3654 1.4465-0.815v0.8785c0 0.5224 0.6451 0.9442 1.4445 0.9442s1.4465-0.4218 1.4465-0.9451v0.726c1e-3 0.5817 0.6475 1.0502 1.4454 1.0522 0.7994 0 1.4477-0.4705 1.4477-1.0514l-9e-4 -0.0637c0.5919 0.1201 1.1832 0.2293 1.7751 0.301 0.8013 0.0882 1.6044 0.142 2.4097 0.2115zm-104.9 5.4048c-0.5085 0.7475-1.0088 2.0531-1.4814 2.4534-0.0833 0.0725-0.1598 0.1567-0.2412 0.2313l-0.5451-0.548c-0.3705-0.3685-1.1259-0.2086-1.6909 0.3564-0.5638 0.5638-0.7245 1.3192-0.3543 1.6888l0.3495 0.3504c-0.3404-0.3407-1.0732-0.1568-1.6373 0.4068-0.5638 0.5641-0.7475 1.2977-0.4062 1.6375l0.6874 0.6889c-0.1689 0.2233-0.3387 0.449-0.5196 0.6582-7.2187 1.5182-9.8467 7.626-13.387 12.822-1.6827 2.6858-3.5065 5.2294-5.5965 7.5078-1.0482 1.1359-2.1305 2.238-3.3457 3.2069-0.9014 0.7237-1.8698 1.3841-2.8863 1.9944l-0.2729-0.2729c-0.3178-0.3187-1.4057-0.4913-1.9698 0.0725-0.5638 0.565-0.7645 1.2816-0.4468 1.5982l-0.6202-0.6194c-0.3696-0.369-1.1253-0.2092-1.69 0.3555-0.5638 0.5641-0.724 1.3192-0.3543 1.6889l-0.5134-0.5122c-0.411-0.4119-1.2016-0.2872-1.7663 0.2778-0.564 0.5643-0.6891 1.3541-0.278 1.7662l0.0448 0.0451c-0.5043 0.3322-0.999 0.6729-1.4675 1.0409-0.6296 0.5034-1.2331 1.0318-1.8496 1.5491-11.177-13.38-17.514-29.432-18.997-45.85 0.8022-0.0692 1.6052-0.1219 2.4089-0.2112 0.5904-0.0726 1.182-0.1797 1.7728-0.3019v0.0638c0 0.5817 0.6474 1.0511 1.4465 1.0522 0.7985-8e-4 1.4468-0.4705 1.4468-1.0525v-0.7237c0 0.5202 0.6471 0.9431 1.4457 0.942 0.7979 0 1.4442-0.4207 1.4453-0.9431l-8e-4 -0.8785c8e-4 0.4496 0.648 0.815 1.4462 0.815 0.7994 3e-4 1.4465-0.8907 1.4465-1.3394l3e-4 -0.3861c1.1486-0.2888 2.3001-0.5062 3.4489-0.6315 1.5441-0.1749 3.0895-0.1619 4.6336-0.0984 3.0877 0.1324 6.1772 0.6435 9.2661 1.3504 6.1781 1.1725 12.355 3.6318 18.534-0.3991 0.2761 0.0202 0.5561 0.0607 0.8331 0.0984l-9e-4 0.9728c0 0.4816 0.648 0.872 1.4454 0.8708 0.7983 1e-3 1.4465-0.3892 1.4454-0.8696l3e-4 0.4943c8e-4 0.5233 0.648 0.944 1.4462 0.944 0.7997 0 1.4466-0.4207 1.4457-0.9431l1e-3 -0.7733c0.1092-4e-3 0.2211 8e-4 0.3337-7e-3 0.6165-0.0516 1.9 0.5193 2.7856 0.688 0.5896 2.3165 1.506 4.566 2.7592 6.6719zm-31.565 51.119c0.5173-0.6168 1.0454-1.2194 1.55-1.849 0.3671-0.4686 0.7087-0.9632 1.0412-1.4683l0.0447 0.0456c0.4111 0.411 1.2014 0.2849 1.7663-0.2781 0.565-0.5646 0.6888-1.3561 0.2789-1.7662l-0.5142-0.5131c0.3702 0.3693 1.1257 0.2083 1.6898-0.3546 0.5649-0.5647 0.7245-1.3204 0.3554-1.6898l-0.6205-0.6205c0.3175 0.3178 1.0335 0.1182 1.5993-0.4467 0.5638-0.5641 0.3932-1.652 0.0746-1.9707l-0.273-0.2721c0.6086-1.0165 1.2685-1.9848 1.9925-2.8862 0.968-1.2141 2.071-2.2983 3.2068-3.3457 2.2785-2.09 4.8232-3.9136 7.5059-5.5976 5.1984-3.5382 11.305-6.1685 12.823-13.386 0.2112-0.1825 0.4357-0.3506 0.6591-0.5204l0.688 0.6891c0.3407 0.3407 1.0743 0.157 1.6384-0.4071 0.5638-0.5641 0.7466-1.2977 0.4056-1.6381l0.3507 0.3506c0.3705 0.3691 1.1259 0.2092 1.6897-0.3546 0.5652-0.5649 0.726-1.3204 0.3555-1.6897l-0.5471-0.5479c0.0737-0.0817 0.159-0.1551 0.2313-0.2396 0.4003-0.4714 1.7059-0.974 2.4525-1.4831 2.1067 1.2549 4.3555 2.1702 6.6725 2.7607 0.167 0.887 0.7398 2.1685 0.6883 2.785-8e-3 0.1134-2e-3 0.2245-7e-3 0.3357l-0.7742-9e-4c-0.5213 0-0.9445 0.648-0.9422 1.4465 0 0.7983 0.4218 1.4454 0.9419 1.4454l0.4975 2e-3c-0.4816-8e-4 -0.8719 0.6455-0.8708 1.4445-8e-4 0.7986 0.3872 1.4446 0.8688 1.4434l0.9749 2e-3c0.0377 0.277 0.0785 0.5559 0.0983 0.834-4.0305 6.1775-1.5726 12.354-0.3991 18.531 0.7081 3.09 1.2172 6.1784 1.3493 9.265 0.0635 1.546 0.0777 3.0895-0.0972 4.6355-0.1253 1.15-0.3424 2.3003-0.6307 3.4492l-0.3861 1e-3c-0.4499 0-1.3414 0.646-1.3414 1.4453 0 0.7974 0.3646 1.4446 0.815 1.4454l-0.8773 3e-4c-0.5213 2e-3 -0.9431 0.6472-0.9442 1.4454 0 0.7982 0.4209 1.4454 0.945 1.4462l-0.7268-8e-4c-0.5805 1e-3 -1.0502 0.6486-1.0513 1.4457 0 0.7993 0.4705 1.4456 1.0525 1.4465l0.0618 3e-4c-0.1194 0.5918-0.2274 1.1829-0.3002 1.7739-0.0902 0.8033-0.1429 1.6061-0.2112 2.4094-16.417-1.4828-32.468-7.8205-45.851-18.998zm53.397-74.359c5.9819 0 10.848 4.8657 10.848 10.846 0 5.98-4.866 10.846-10.848 10.846-5.9805 0-10.845-4.866-10.845-10.846 0-5.9805 4.8649-10.846 10.845-10.846zm3.8543 72.416c0.1332-3.0889 0.6434-6.1775 1.3504-9.2673 1.1715-6.1781 3.6315-12.353-0.4003-18.532 0.0207-0.2769 0.0615-0.5558 0.0981-0.8331l0.974 3e-4c0.4827 0 0.8717-0.6474 0.8708-1.4476-8e-4 -0.7971-0.3892-1.4446-0.8697-1.4434l0.4947-1e-3c0.523 0 0.9439-0.6463 0.9439-1.4465 1e-3 -0.7982-0.4209-1.4465-0.9431-1.4454l-0.7744 9e-4c-5e-3 -0.11 2e-3 -0.2223-6e-3 -0.3337-0.0505-0.6174 0.5201-1.902 0.6888-2.7878 2.3153-0.5894 4.5643-1.5069 6.671-2.7599 0.7487 0.5103 2.0543 1.0114 2.454 1.4831 0.0725 0.0837 0.155 0.1579 0.2285 0.2393l-0.546 0.5471c-0.3694 0.3696-0.2095 1.1267 0.3552 1.6897 0.5641 0.5649 1.3206 0.7248 1.6908 0.3566l0.3507-0.3504c-0.3416 0.3405-0.1579 1.0721 0.4059 1.6359 0.5652 0.5652 1.2969 0.7486 1.6382 0.4082l0.6882-0.6891c0.2234 0.1698 0.4484 0.3387 0.6591 0.5204 1.5159 7.2187 7.6237 9.8467 12.822 13.386 2.6824 1.6846 5.2299 3.5087 7.5064 5.5976 1.1358 1.0474 2.238 2.1305 3.2068 3.3465 0.7249 0.9006 1.3842 1.8678 1.9928 2.8854l-0.273 0.2733c-0.3166 0.3177-0.4907 1.4054 0.0743 1.9706 0.5649 0.5638 1.2818 0.7634 1.5984 0.4445l-0.6193 0.6208c-0.3694 0.3705-0.2095 1.1259 0.3543 1.6914 0.565 0.5633 1.3204 0.7231 1.69 0.3535l-0.5133 0.5134c-0.4113 0.4104-0.2841 1.2013 0.2789 1.7662 0.5649 0.5641 1.3561 0.69 1.7651 0.2781l0.0457-0.0448c0.3328 0.5043 0.6732 0.9981 1.0426 1.4695 0.5023 0.6279 1.0315 1.2311 1.5477 1.8456-13.38 11.179-29.433 17.515-45.848 18.999-0.0695-0.8025-0.1233-1.6056-0.2138-2.4086-0.0703-0.5908-0.1794-1.1824-0.2996-1.7742l0.0626 1e-3c0.5806-2e-3 1.0523-0.6486 1.0523-1.4465-1e-3 -0.7982-0.4706-1.4468-1.0534-1.4468h-0.7237c0.521 0 0.9431-0.6472 0.9431-1.4445 1e-3 -0.798-0.4201-1.4454-0.9439-1.4466l-0.8779 3e-4c0.4498 0 0.815-0.6483 0.815-1.4457 0-0.799-0.8904-1.4456-1.34-1.4465h-0.3855c-0.2886-1.1497-0.5063-2.2994-0.6316-3.45-0.1743-1.5438-0.1604-3.0887-0.098-4.6324zm160.2-64.232c-0.7733-1.1444-1.546-1.9528-2.3173-2.6059-0.7691-0.6823-1.5429-1.1668-2.3162-1.5531-0.7725-0.3872-1.544-0.6432-2.3165-0.8141-0.7721-0.1934-1.5446-0.3711-2.3162-0.5239-3.0895-0.6494-6.1792-0.8155-9.2639-0.6902-3.0917 0.148-6.1795 0.2185-9.269 0.6284-3.0875 0.3872-6.1792 1.0542-9.2662 1.6282-4.6451 0.7963-9.2877 1.6144-13.933 0.8022l-8e-4 -1.1398c2e-3 -0.5218-0.6475-0.9442-1.4437-0.9462-0.7991 2e-3 -1.4465 0.4232-1.4446 0.9462l-8e-4 -0.7256c0-0.5806-0.6486-1.0523-1.4477-1.0514-0.7979 1e-3 -1.4456 0.4714-1.4456 1.0514l-9e-4 0.1471c-1.1489-0.2642-2.2983-0.3943-3.4481-0.4547l-1.2838-0.0896c-0.7633-10.511-3.1473-20.924-7.1282-30.844h-21.337c5.0247 9.6956 8.0317 20.165 8.9918 30.79-0.8031 0.0703-1.6064 0.125-2.4086 0.2126-0.5908 0.0734-1.1835 0.1814-1.7742 0.3016v-0.0635c0-0.5817-0.6483-1.0523-1.4477-1.0514-0.7951 2e-3 -1.4454 0.4705-1.4454 1.0514l1e-3 0.7256c-1e-3 -0.523-0.6483-0.9442-1.4446-0.9442-0.7993 1e-3 -1.4465 0.4221-1.4485 0.9442l2e-3 0.8788c0-0.451-0.6477-0.8161-1.4476-0.8161-0.7983 0-1.4454 0.8906-1.4454 1.3402l8e-4 0.3864c-1.1497 0.2888-2.3006 0.5062-3.4509 0.6312-1.544 0.173-3.088 0.1599-4.6326 0.0964-3.089-0.1312-6.1776-0.6406-9.2662-1.3493-6.177-1.1724-12.356-3.6306-18.533 0.4011-0.275-0.0207-0.5559-0.0623-0.832-0.1l-8e-4 -0.9729c-1e-3 -0.4827-0.6478-0.8719-1.4457-0.8708-0.7974 0-1.4457 0.3901-1.4446 0.8705l-3e-3 -0.4943c2e-3 -0.523-0.6466-0.9454-1.4448-0.9454-0.7982-8e-4 -1.4477 0.4221-1.4457 0.9442l-8e-4 0.7733c-0.1092 5e-3 -0.2206 0-0.3337 5e-3 -0.6162 0.0528-1.9003-0.519-2.7878-0.684-0.5865-2.3181-1.5052-4.5691-2.757-6.6747 0.5074-0.7478 1.0108-2.0534 1.4805-2.4531 0.0862-0.0729 0.1588-0.1559 0.2418-0.2296l0.5465 0.5454c0.3702 0.3702 1.1257 0.21 1.6903-0.3555 0.5621-0.563 0.724-1.3187 0.3547-1.6889l-0.3504-0.3495c0.3407 0.3396 1.0721 0.159 1.6373-0.4062 0.5646-0.5658 0.7472-1.2985 0.4068-1.639l-0.6877-0.6891c0.1675-0.2222 0.3381-0.4476 0.5181-0.6573 7.2207-1.5177 9.8496-7.6247 13.387-12.823 1.0109-1.6092 2.0801-3.1589 3.2168-4.64h-14.787c-3.894 2.5324-7.4948 5.358-8.6117 10.668-0.2086 0.1817-0.4348 0.3506-0.6582 0.5193l-0.6882-0.688c-0.3405-0.3407-1.073-0.1579-1.6371 0.4068-0.5649 0.5641-0.7486 1.2977-0.4073 1.6376l-0.3512-0.3496c-0.3691-0.3704-1.1248-0.2086-1.6889 0.3535-0.5646 0.5647-0.7257 1.3204-0.3546 1.6895l0.5451 0.5471c-0.0734 0.0825-0.1568 0.1567-0.2293 0.2401-0.4008 0.4728-1.7065 0.9751-2.4531 1.4825-1.8814-1.1189-3.8809-1.9551-5.9361-2.5438l0.1163-3.9303c0.1139-0.2392 0.1837-0.5323 0.1837-0.8521 0-0.2698-0.0519-0.521-0.1372-0.7375l0.2514-8.4427h-14.862l0.25 8.4446c-0.0833 0.2166-0.1349 0.4666-0.1349 0.7365-1e-3 0.318 0.0683 0.6109 0.1825 0.8492l0.1163 3.9334c-2.0552 0.5876-4.0539 1.4238-5.9361 2.5427-0.7466-0.5074-2.0534-1.0097-2.4525-1.4803-0.0734-0.0844-0.1568-0.1598-0.2302-0.2423l0.546-0.5471c0.3696-0.3691 0.2095-1.1237-0.3555-1.6889-0.5627-0.5635-1.3192-0.7237-1.6889-0.3541l-0.3503 0.3484c0.3398-0.3387 0.1579-1.0723-0.4068-1.6373-0.5649-0.5638-1.2988-0.7458-1.6364-0.4059l-0.6889 0.688c-0.2253-0.1678-0.4501-0.3376-0.6593-0.5193-1.1169-5.3096-4.7169-8.1352-8.6108-10.668h-14.787c1.137 1.4811 2.2051 3.0308 3.2148 4.6391 3.5396 5.1988 6.1673 11.306 13.388 12.823 0.1805 0.2106 0.3495 0.4348 0.5184 0.6591l-0.6882 0.6882c-0.3393 0.3396-0.1571 1.0729 0.4082 1.6382 0.5629 0.5638 1.2965 0.7466 1.6358 0.407l-0.3492 0.3495c-0.3691 0.3702-0.2098 1.1257 0.3543 1.6898 0.5641 0.5657 1.3204 0.7245 1.6898 0.3554l0.5462-0.5471c0.0825 0.0746 0.1579 0.1568 0.2421 0.2305 0.4717 0.4 0.972 1.7076 1.4802 2.452-1.2517 2.1089-2.1693 4.3577-2.7581 6.6738-0.8852 0.1681-2.1702 0.7388-2.7864 0.6869-0.1126-7e-3 -0.2257-9e-4 -0.3359-6e-3l2e-3 -0.7744c0-0.5207-0.6482-0.9431-1.4468-0.9431-0.7982 0-1.4465 0.4221-1.4454 0.9431l-8e-4 0.4969c0-0.4816-0.6477-0.8708-1.4445-0.8708-0.7986 0-1.4457 0.3901-1.4466 0.8697v0.9748c-0.2761 0.0369-0.5573 0.0774-0.8331 0.0981-6.1784-4.0317-12.355-1.5727-18.532-0.4-3.0884 0.7078-6.1781 1.2181-9.2667 1.3513-1.5449 0.0615-3.0895 0.0765-4.6327-0.0995-1.1506-0.1247-2.3003-0.3424-3.4501-0.629l3e-4 -0.3864c-1e-3 -0.4498-0.6474-1.3402-1.4468-1.3413-0.7982 1e-3 -1.4445 0.3651-1.4454 0.8152l-8e-4 -0.8779c2e-3 -0.5218-0.6457-0.943-1.4445-0.9442-0.7986 0-1.4466 0.4221-1.4457 0.9431v-0.7245c0-0.5817-0.6486-1.0503-1.4468-1.0514-0.7991 3e-4 -1.4454 0.4705-1.4454 1.0514v0.0626c-0.5919-0.1202-1.1838-0.2285-1.7739-0.2999-0.8025-0.0893-1.6067-0.142-2.4089-0.2134 0.9601-10.626 3.9665-21.095 8.9912-30.79h-21.337c-3.9813 9.9201-6.3641 20.333-7.1283 30.844l-1.283 0.0905c-1.1506 0.0595-2.3014 0.1904-3.4512 0.4535l1e-3 -0.1457c-1e-3 -0.5817-0.6472-1.0514-1.4466-1.0525-0.799 3e-4 -1.4456 0.4705-1.4465 1.0514v0.7256c1e-3 -0.5218-0.6471-0.9442-1.4445-0.9442-0.7982 0-1.4465 0.4221-1.4465 0.9442v1.139c-4.6446 0.8138-9.2869-5e-3 -13.932-0.8014-3.0881-0.5737-6.1779-1.241-9.2659-1.6273-3.0895-0.4108-6.1784-0.4825-9.2668-0.6293-3.0883-0.1242-6.1778 0.0405-9.267 0.6902-0.7721 0.1528-1.5426 0.3303-2.3162 0.5239-0.7716 0.1729-1.5437 0.4269-2.3167 0.8141-0.7711 0.3855-1.5426 0.8696-2.3159 1.5519-0.773 0.6534-1.5443 1.4624-2.3171 2.6079-0.8813 1.3079-0.8285 2.9727 6e-4 4.2069 0.7727 1.1458 1.5443 1.9548 2.3159 2.6082 0.7733 0.68 1.5454 1.1676 2.3162 1.5517 0.773 0.3863 1.5449 0.6414 2.3182 0.8141 0.7721 0.1936 1.5429 0.3705 2.3156 0.5241 3.0889 0.6483 6.1787 0.8152 9.2659 0.6899 3.0892-0.1476 6.1775-0.2182 9.2673-0.6304 3.0883-0.3861 6.1778-1.0522 9.2659-1.6271 4.6443-0.7962 9.2885-1.6143 13.932-0.8013v1.1398c0 0.5213 0.6483 0.9431 1.4465 0.9431 0.7974 1e-3 1.4454-0.4218 1.4454-0.9431l-9e-4 0.7251c0 0.5817 0.6475 1.0522 1.4465 1.0511 0.7983 1e-3 1.4466-0.4706 1.4466-1.0514v-0.146c1.1497 0.2634 2.2994 0.3932 3.4489 0.4538l1.2849 0.0913c1.5557 21.428 9.8022 42.462 24.733 59.711l-0.8439 0.9714c-0.7705 0.8566-1.4913 1.7609-2.1198 2.7607l-0.102-0.1032c-0.4122-0.411-1.2013-0.286-1.7663 0.2789-0.5652 0.5641-0.6899 1.3541-0.2792 1.7663l0.5134 0.5125c-0.3694-0.3697-1.1248-0.2098-1.6898 0.3552-0.5638 0.5638-0.7237 1.3195-0.3554 1.6897l0.8064 0.8053c-2.7096 3.8583-6.5718 6.5645-10.418 9.2858-2.5905 1.7773-5.246 3.4885-7.7043 5.3997-2.4752 1.8946-4.708 4.0291-6.9976 6.1081-2.2714 2.0959-4.3384 4.3973-6.0638 7.0398-0.4371 0.6554-0.8578 1.3261-1.2671 2.0092-0.4238 0.6673-0.7895 1.3935-1.0633 2.213-0.273 0.8189-0.4765 1.707-0.5411 2.736-0.0834 1.0077-0.0564 2.1249 0.2075 3.4818 0.3007 1.5489 1.514 2.6884 2.9755 2.9758 1.3555 0.2634 2.4732 0.29 3.4798 0.2047 1.0296-0.0638 1.9182-0.2673 2.7366-0.5412 0.8189-0.2718 1.5446-0.6378 2.2127-1.0618 0.6843-0.4088 1.3544-0.8308 2.0086-1.2674 2.6428-1.7252 4.9462-3.7908 7.0399-6.0639 2.08-2.2884 4.2137-4.5235 6.1081-6.9981 1.9122-2.4571 3.6238-5.1123 5.4008-7.7023 2.7221-3.8472 5.4267-7.7094 9.286-10.419l0.8051 0.8054c0.3705 0.369 1.125 0.21 1.6897-0.3547 0.5641-0.5638 0.7248-1.3206 0.3555-1.6897l0.5122 0.5134c0.4113 0.411 1.2016 0.2848 1.7663-0.2793 0.5641-0.5657 0.6899-1.3541 0.2789-1.7651l-0.1029-0.104c0.9995-0.6273 1.9029-1.3485 2.7587-2.1189l0.9731-0.8439c17.249 14.931 38.281 23.176 59.712 24.734l0.0896 1.2827c0.0615 1.1508 0.1913 2.3006 0.4538 3.4509l-0.1463-6e-4c-0.5805 1e-3 -1.0522 0.648-1.0502 1.4462-1e-3 0.7986 0.4694 1.4463 1.0514 1.4466l0.7248-3e-4c-0.5222-6e-4 -0.9442 0.6477-0.9442 1.4459 0 0.7977 0.4229 1.446 0.9442 1.4457l1.1378-3e-4c0.8141 4.6437-4e-3 9.2889-0.8005 13.932-0.5746 3.0892-1.2419 6.1781-1.6271 9.2662-0.411 3.0895-0.4816 6.1778-0.6293 9.267-0.1241 3.0886 0.0406 6.1767 0.69 9.2665 0.1539 0.771 0.3305 1.544 0.5252 2.3159 0.1707 0.7724 0.4269 1.5449 0.8119 2.3167 0.3875 0.7725 0.8719 1.5449 1.5528 2.3168 0.6534 0.7716 1.4624 1.5443 2.6082 2.3159 1.3079 0.8818 2.9715 0.8286 4.2069 6e-4 1.1454-0.7731 1.9547-1.5449 2.6067-2.3174 0.6834-0.7716 1.1676-1.544 1.552-2.3162 0.3875-0.7724 0.6423-1.544 0.8161-2.3156 0.1927-0.7724 0.3693-1.5449 0.5221-2.3182 0.6494-3.0874 0.8164-6.1766 0.6911-9.265-0.1477-3.0889-0.2194-6.1775-0.6313-9.267-0.3841-3.0878-1.0525-6.1781-1.6254-9.2659-0.7971-4.6437-1.6152-9.288-0.803-13.933l1.1418 1e-3c0.5198-9e-4 0.9411-0.6486 0.9419-1.446 3e-4 -0.7996-0.4209-1.4462-0.9439-1.4465l0.7256 6e-4c0.5817-6e-4 1.0523-0.6475 1.0511-1.4468 0-0.7988-0.4705-1.4454-1.0513-1.4451l-0.1449 5e-4c0.2622-1.1508 0.3923-2.3011 0.4536-3.4503l0.0907-1.2838c21.429-1.5577 42.463-9.8045 59.711-24.734l0.9697 0.8453c0.8578 0.7702 1.7635 1.491 2.7613 2.1183l-0.1021 0.1024c-0.411 0.411-0.286 1.2021 0.2795 1.7671 0.5633 0.5629 1.3555 0.6888 1.7654 0.2781l0.5134-0.5123c-0.3691 0.3691-0.2115 1.1237 0.3543 1.6898 0.5641 0.5646 1.3198 0.7225 1.6898 0.3543l0.8044-0.8062c3.8591 2.7105 6.5654 6.5716 9.2869 10.418 1.7782 2.59 3.4897 5.2469 5.3997 7.7032 1.8955 2.4757 4.028 4.7094 6.1078 6.9984 2.0954 2.2717 4.3963 4.3373 7.0404 6.0636 0.6551 0.4374 1.3264 0.8589 2.0081 1.2674 0.6684 0.4243 1.3952 0.7883 2.2141 1.0621 0.8181 0.2747 1.7068 0.4765 2.7352 0.5406 1.0071 0.0856 2.1257 0.0587 3.4829-0.2055 1.548-0.3005 2.6867-1.5149 2.9747-2.975 0.2633-1.3552 0.2908-2.4749 0.2052-3.4815-0.0632-1.0281-0.267-1.9173-0.5408-2.7357-0.273-0.8198-0.6387-1.5457-1.0616-2.2133-0.4096-0.6834-0.83-1.3541-1.2677-2.0098-1.7251-2.6438-3.7936-4.9436-6.0652-7.0392-2.2862-2.0798-4.523-4.2137-6.9971-6.107-2.4565-1.9108-5.1134-3.6235-7.7026-5.4008-3.848-2.7222-7.7082-5.4278-10.418-9.2869l0.805-0.8048c0.3694-0.3696 0.2103-1.1245-0.3535-1.6891-0.5658-0.5647-1.3203-0.7249-1.69-0.3544l0.5125-0.5133c0.4122-0.411 0.2849-1.2025-0.2792-1.7652-0.5655-0.566-1.355-0.6913-1.766-0.2792l-0.1032 0.1024c-0.6264-0.9998-1.3481-1.9044-2.1177-2.7601l-0.8447-0.9726c14.931-17.25 23.176-38.282 24.734-59.712l1.2838-0.089c1.1498-0.0629 2.2992-0.1916 3.4501-0.4561l-9e-4 0.1474c9e-4 0.5817 0.6472 1.0502 1.4463 1.0511 0.7994 1e-3 1.4457-0.4706 1.4465-1.0503l1e-3 -0.7268c-3e-3 0.5233 0.6455 0.944 1.4437 0.9451 0.7991 0 1.4454-0.4218 1.4465-0.9431l-2e-3 -1.1409c4.6462-0.813 9.2888 4e-3 13.934 0.8013 3.0873 0.5738 6.1776 1.243 9.2662 1.6271 3.0889 0.4122 6.1773 0.4828 9.2682 0.6304 3.0875 0.1245 6.1752-0.0405 9.2659-0.6888 0.7716-0.1547 1.5417-0.3328 2.3161-0.5252 0.7714-0.1727 1.5421-0.4269 2.3143-0.8141 0.7735-0.385 1.5448-0.8708 2.3161-1.5526 0.7745-0.6525 1.5461-1.4615 2.3185-2.6073 0.8816-1.3087 0.83-2.9727 0-4.2077zm-99.888-82.795 59.536 7.1901h-59.536zm-126.47 7.1901h-59.36l59.36-7.1901zm123.74-9.2622v10.255h-121.01v-10.255l-68.722 7.878 0.0105 37.087h258.53v-37.102zm107.28 10.106c-8.8906 3.903-19.381 8.3863-35.74 11.952l3e-4 -17.626-52.685-6.0208c51.559-3.003 73.976-16.507 88.424-24.186l-10.413 25.392zm-299.75-5.658 52.638-6.0364c-51.589-2.9982-74.015-16.506-88.467-24.187l10.413 25.392-10.413 10.489c8.9076 3.9106 19.418 8.4033 35.828 11.973z" fill="#231f20" fill-rule="evenodd"/>
<path d="m219.35 371.35h7.3397v6.2733h1.5685l4.1405-6.2733h8.375l-5.1129 7.4653c2.666 1.2861 4.3285 3.513 4.3285 6.7124v0.0627c0 2.2586-0.6899 3.8897-2.0075 5.2069-1.5369 1.537-4.015 2.5093-7.9044 2.5093h-10.727zm7.3397 11.512v4.2973h3.1995c1.694 0 2.7919-0.69 2.7919-2.1016v-0.0627c0-1.3487-1.0667-2.133-2.8231-2.133zm37.107-11.982c6.7753 0 12.014 5.0814 12.014 11.449v0.0629c0 6.3675-5.1755 11.386-11.951 11.386-6.7754 0-12.014-5.0814-12.014-11.449v-0.0627c0-6.3674 5.1755-11.386 11.951-11.386zm0.0629 6.4931c-2.823 0-4.6111 2.3524-4.6111 4.9558v0.0629c0 2.5719 1.7566 4.8932 4.5482 4.8932 2.823 0 4.6111-2.3525 4.6111-4.9561v-0.0627c0-2.5721-1.7566-4.8931-4.5482-4.8931zm24.529-6.0225h8.1552c8.877 0 13.331 4.6108 13.331 11.104v0.0627c0 6.493-4.36 10.79-13.08 10.79h-8.4064zm8.5631 15.558c3.3563 0 5.5205-1.3802 5.5205-4.5482v-0.0626c0-3.1683-2.1642-4.5482-5.5205-4.5482h-1.2234v9.159zm22.333-15.558h7.8417l1.1291 2.9486h7.685l1.1605-2.9486h7.967l-9.2531 22.114h-7.2771zm10.822 8.1552 2.0075 5.3326 2.0075-5.3326zm35.57-8.5631c5.8969 0 9.6925 2.823 9.6925 7.4341v0.0627c0 4.4226-3.7641 6.0536-9.3787 7.0888-2.3213 0.4391-2.9171 0.8156-2.9171 1.4117v0.0626c0 0.5332 0.5017 0.9097 1.5995 0.9097 2.039 0 4.5171-0.6588 6.5872-2.1643l3.5759 4.9558c-2.5407 2.0075-5.6775 3.0113-9.9119 3.0113-6.054 0-9.3161-3.2307-9.3161-7.4027v-0.0626c0-4.6423 4.3285-6.0537 9.2532-7.0575 2.3524-0.4705 3.0427-0.8155 3.0427-1.4428v-0.0629c0-0.5959-0.5647-0.9408-1.8819-0.9408-2.5722 0-5.3011 0.7525-7.6851 2.5718l-3.9208-4.6735c2.7918-2.4465 6.8065-3.7014 11.261-3.7014" fill="#fff"/>
</g>
</svg>