<?xml version="1.0" encoding="UTF-8"?>
<svg viewBox="0 0 439 439" xmlns="http://www.w3.org/2000/svg">
<g transform="matrix(1.3333 0 0 -1.3333 -175.98 809.51)">
<path transform="matrix(.75002 0 0 -.75002 129.85 607.16)" d="m222.5 0.021484c-0.97839-0.0087664-1.9699 0.26762-2.8418 0.85547-1.5277 1.0288-2.6054 2.0591-3.4766 3.0879-0.90784 1.0292-1.5537 2.0579-2.0703 3.0879-0.51332 1.029-0.85444 2.06-1.082 3.0898-0.25959 1.0292-0.49598 2.0599-0.70117 3.0879-0.86585 4.1196-1.0854 8.2355-0.91992 12.354 0.19692 4.1188 0.29185 8.2382 0.83984 12.357 0.51359 4.1174 1.4018 8.2347 2.168 12.354 1.062 6.1906 2.1538 12.385 1.0684 18.576h-1.5176c-0.69505-4e-4 -1.2578 0.86416-1.2578 1.9277 0 1.0642 0.56156 1.9285 1.2578 1.9277l-0.9668-2e-3c-0.77598 4e-4 -1.4017 0.86491-1.4004 1.9297-3e-3 1.0642 0.62641 1.9264 1.4004 1.9277h0.19336c-0.34999 1.5337-0.52152 3.0652-0.60351 4.5996l-0.11914 1.7109c-28.574 2.0773-56.617 13.071-79.615 32.979l-1.2969-1.125c-1.141-1.0272-2.3451-1.9898-3.6777-2.8262l0.13672-0.13867c0.54799-0.54799 0.37907-1.5993-0.37305-2.3535-0.75291-0.75211-1.8051-0.91908-2.3535-0.37109l-0.68359 0.68359c0.49238-0.49212 0.2775-1.5002-0.47461-2.252-0.75292-0.75291-1.758-0.9666-2.252-0.47461l-1.0742 1.0742c-5.1456-3.6127-8.7515-8.7612-12.381-13.891-2.3693-3.4532-4.6516-6.9935-7.2012-10.27-2.5258-3.2994-5.3693-6.279-8.1426-9.3301-2.7915-3.0307-5.8631-5.7857-9.3867-8.0859-0.87224-0.58212-1.7654-1.1444-2.6777-1.6895-0.89078-0.56532-1.8593-1.0536-2.9512-1.416-1.0912-0.36519-2.2757-0.63564-3.6484-0.7207-1.3421-0.11373-2.8314-0.07971-4.6387 0.27148-1.9486 0.38319-3.5678 1.9036-3.9688 3.9688-0.35186 1.8092-0.38659 3.299-0.27539 4.6426 0.08613 1.372 0.35671 2.5546 0.7207 3.6465 0.36506 1.0926 0.85292 2.0615 1.418 2.9512 0.54572 0.91078 1.1067 1.8058 1.6895 2.6797 2.3005 3.5232 5.0555 6.5903 8.084 9.3848 3.0527 2.7719 6.0299 5.6185 9.3301 8.1445 3.2777 2.5482 6.8195 4.8295 10.273 7.1992 5.1281 3.6283 10.276 7.2366 13.889 12.381l-1.0742 1.0742c-0.49106 0.49358-0.27711 1.5002 0.47461 2.252 0.75331 0.75331 1.7594 0.96753 2.252 0.47461l-0.68359 0.68359c-0.54759 0.54959-0.38249 1.6014 0.37109 2.3535 0.75331 0.75318 1.8059 0.92103 2.3555 0.37305l0.13672-0.13868c0.83798 1.333 1.7989 2.5395 2.8262 3.6816l1.125 1.2949c-10.073 11.637-17.861 24.567-23.369 38.203h-0.18555c-5.296 13.231-8.4615 27.118-9.4668 41.133l-1.7109 0.1211c-1.5232 0.0814-3.0466 0.25635-4.5684 0.60547-0.0058-0.0721-0.01291-0.14408-0.0332-0.21289-0.01703-0.76305-0.87215-1.3789-1.9258-1.3789-1.0655-2.5e-4 -1.9289 0.6302-1.9277 1.4043l-2e-3 0.96679c0.0019-0.69731-0.86229-1.2585-1.9277-1.2598-1.0616 4e-3 -1.9265 0.56795-1.9238 1.2637v1.5195c-6.1926 1.0884-12.384 3e-3 -18.578-1.0527-4.1166-0.76168-8.2385-1.6476-12.355-2.1602-4.1197-0.54288-8.2371-0.6325-12.359-0.82617-4.113-0.1634-8.2312 0.0602-12.35 0.92969-1.0286 0.20466-2.0587 0.44434-3.0879 0.70312-1.0298 0.22877-2.0584 0.57069-3.0879 1.0879-1.0306 0.51596-2.0613 1.1616-3.0859 2.0723-1.0276 0.8717-2.0582 1.9518-3.0879 3.4785-0.71398 1.0668-0.98476 2.3718-0.77344 3.6328 0.093467 0.75779 0.35507 1.5057 0.81055 2.1816 1.0304 1.5273 2.0592 2.6054 3.0898 3.4766 1.031 0.90971 2.0598 1.5563 3.0879 2.0703 1.0306 0.51625 2.0611 0.85346 3.0898 1.084 1.0314 0.25812 2.0584 0.49549 3.0879 0.69921 4.1188 0.86625 8.2378 1.0855 12.355 0.91993 4.1178-0.19573 8.2362-0.29018 12.355-0.8379 4.1172-0.51505 8.2362-1.405 12.354-2.1699 6.1848-1.0604 12.367-2.1499 18.551-1.0723l-2e-3 1.2559c1.74e-4 0.0579 0.0156 0.11214 0.02734 0.16797v0.0976c0 0.69612 0.8635 1.2598 1.9277 1.2598 0.96804 0 1.7635-0.4694 1.8984-1.0781l2e-3 0.51563c1.43e-4 0.0631 0.01415 0.12273 0.02539 0.18359v0.0879c0.0012 0.77452 0.86438 1.4 1.9297 1.4004 1.0658-1e-3 1.9264-0.62676 1.9277-1.4023v-0.19531c1.533 0.35079 3.0675 0.52613 4.6016 0.60547l1.707 0.12109c0.03328 0.43986 0.07382 0.87877 0.11133 1.3184 1.1181 13.566 4.2548 26.993 9.3965 39.805h0.11524c5.5203 13.63 13.319 26.551 23.402 38.18l-1.125 1.2988c-1.0251 1.1418-1.9863 2.3479-2.8203 3.6816l-0.13672-0.13672c-0.54851-0.54896-1.6021-0.3803-2.3555 0.375-0.75143 0.75094-0.91922 1.806-0.36914 2.3535l0.68359 0.68359c-0.49336-0.49355-1.4982-0.27896-2.252 0.47461-0.75103 0.75346-0.96366 1.7616-0.4707 2.2539l1.0742 1.0703c-3.6084 5.1485-8.7516 8.7604-13.879 12.395-3.4501 2.3727-6.9907 4.6604-10.264 7.2109-3.2965 2.5273-6.2766 5.3747-9.3223 8.1504-3.0262 2.7968-5.7812 5.8656-8.0781 9.3926-0.5828 0.87476-1.1422 1.77-1.6875 2.6816-0.56307 0.89062-1.0491 1.8598-1.4121 2.9531-0.3641 1.0915-0.63569 2.2757-0.71875 3.6465-0.11293 1.3422-0.0753 2.836 0.27734 4.6426 0.38572 1.9464 1.9064 3.5641 3.9707 3.9629 1.8099 0.35065 3.3019 0.38499 4.6445 0.26953 1.3711-0.0867 2.556-0.35738 3.6465-0.72461 1.0915-0.36602 2.0585-0.85144 2.9492-1.418 0.90842-0.54544 1.8029-1.1074 2.6758-1.6914 3.5233-2.3048 6.5898-5.0624 9.3809-8.0938 2.7703-3.0544 5.6104-6.0348 8.1348-9.3379 2.5437-3.2772 4.8216-6.822 7.1894-10.277 3.624-5.1316 7.229-10.282 12.371-13.9l1.0723 1.0723c0.49376 0.49049 1.5025 0.28081 2.2539-0.47265 0.75372-0.75545 0.96326-1.7622 0.47071-2.2539l0.68359 0.68164c0.547 0.5471 1.6031 0.37812 2.3535-0.37304 0.75331-0.754 0.91956-1.808 0.37109-2.3555l-0.13672-0.13672c1.3296-0.83757 2.5369-1.8002 3.6797-2.8281l1.293-1.127c23.014 19.885 51.067 30.855 79.641 32.906l0.12305 1.7109c0.0831 1.5322 0.25844 3.0656 0.60938 4.5996h-0.19336c-0.77438 2.9e-4 -1.4017 0.86269-1.4004 1.9277-6.7e-4 1.0657 0.62676 1.9275 1.4023 1.9277l0.96875-2e-3c-0.69732 1e-3 -1.2592 0.86358-1.2578 1.9297 2e-3 1.0632 0.56475 1.928 1.2578 1.9277l1.5215-2e-3c1.0884 6.1922 5e-3 12.386-1.0527 18.578-0.76019 4.1176-1.6478 8.24-2.1562 12.357-0.54552 4.1197-0.63876 8.2369-0.83203 12.355-0.16338 4.1179 0.0641 8.2359 0.93359 12.352 0.20464 1.0309 0.44137 2.0622 0.69922 3.0918 0.23265 1.0286 0.57226 2.0566 1.0898 3.0859 0.51342 1.0291 1.1602 2.058 2.0723 3.0859 0.87024 1.0292 1.9504 2.0565 3.4785 3.0859 1.6481 1.1029 3.8666 1.1733 5.6094-4e-3 1.5268-1.0301 2.6044-2.0623 3.4746-3.0918 0.90695-1.03 1.5526-2.0594 2.0684-3.0898 0.51243-1.0295 0.85146-2.0598 1.0781-3.0898 0.2587-1.0294 0.49301-2.0617 0.69727-3.0898 0.86221-4.1204 1.0793-8.2376 0.91016-12.355-0.2006-4.1187-0.29796-8.2368-0.84961-12.355-0.51724-4.1169-1.4119-8.2334-2.1816-12.352-1.0676-6.1897-2.1639-12.382-1.084-18.574l1.5176-2e-3c0.69505-2.1e-4 1.2592-0.86415 1.2578-1.9277-9.3e-4 -1.0642-0.56548-1.9291-1.2617-1.9277h0.9668c0.77598-1e-3 1.4017-0.86491 1.4004-1.9297 2e-3 -1.0642-0.62836-1.9275-1.4023-1.9277h-0.19532c0.34862-1.534 0.52104-3.0671 0.60157-4.6016l0.11719-1.709c28.572-2.1027 56.606-13.121 79.586-33.049l1.2969 1.123c1.1419 1.0261 2.3483 1.9871 3.6816 2.8223l-0.13672 0.13867c-0.54748 0.54847-0.37976 1.5999 0.37305 2.3535 0.75355 0.75144 1.8076 0.91956 2.3555 0.37109l0.6836-0.68555c-0.49196 0.49258-0.27819 1.5009 0.47461 2.252 0.75358 0.75226 1.7604 0.96313 2.2539 0.4707l1.0723-1.0742c5.1488 3.6082 8.7586 8.7546 12.393 13.881 2.3723 3.4511 4.6585 6.9879 7.2109 10.262 2.5287 3.2971 5.3764 6.2756 8.1523 9.3242 2.7942 3.0283 5.8669 5.7791 9.3926 8.0762 0.87276 0.58136 1.7668 1.1433 2.6797 1.6875 0.8913 0.56453 1.859 1.0527 2.9512 1.4141 1.0915 0.36423 2.2776 0.63293 3.6504 0.7168 1.3422 0.11253 2.8317 0.0774 4.6387-0.27539 1.9483-0.38491 3.5658-1.9072 3.9648-3.9727 0.35081-1.8095 0.38375-3.2991 0.27149-4.6426-0.0874-1.3719-0.35963-2.555-0.72461-3.6465-0.36602-1.0923-0.85407-2.06-1.4199-2.9492-0.54654-0.9103-1.1079-1.8044-1.6914-2.6777-2.3036-3.5212-5.0628-6.5872-8.0938-9.3789-3.0552-2.7692-6.0355-5.6116-9.3379-8.1348-3.2799-2.5453-6.8213-4.8248-10.277-7.1914-5.1314-3.6238-10.285-7.2261-13.902-12.367l1.0742-1.0762c0.4906-0.49401 0.27779-1.5009-0.47461-2.252-0.75399-0.75265-1.7618-0.96405-2.2539-0.47071l0.68555-0.68359c0.54709-0.55008 0.37924-1.604-0.375-2.3555-0.75399-0.7525-1.8064-0.91761-2.3555-0.36914l-0.13672 0.13672c-0.83916-1.3323-1.7998-2.5366-2.8281-3.6777l-1.127-1.2949c10.008-11.582 17.755-24.44 23.246-37.998h0.18359c5.3077-13.226 8.4862-27.109 9.5039-41.123l1.7109-0.12109c1.533-0.0805 3.0658-0.25322 4.5976-0.60547l2e-3 0.19531c0 0.77331 0.86389 1.401 1.9277 1.4023 1.0654 1e-3 1.9297-0.62823 1.9297-1.4023v-0.9668c-3e-3 0.69732 0.86229 1.259 1.9277 1.2617 1.0616-3e-3 1.9265-0.566 1.9238-1.2617l2e-3 -1.5195c6.1936-1.0829 12.383 9e-3 18.576 1.0703 4.1159 0.76532 8.2389 1.6537 12.355 2.1699 4.1192 0.54652 8.2353 0.64057 12.357 0.8379 4.1128 0.16706 8.2323-0.0541 12.352-0.91993 1.0288-0.20372 2.0584-0.44135 3.0879-0.69921 1.03-0.22787 2.0599-0.56774 3.0898-1.084 1.031-0.51505 2.0624-1.1626 3.0879-2.0723 1.0284-0.87077 2.0588-1.9488 3.0898-3.4746l-4e-3 2e-3c0.65744-0.97824 0.93874-2.1576 0.82031-3.3203 0.0167-0.99262-0.25655-1.9986-0.85351-2.8828-1.0317-1.5264-2.0604-2.6043-3.0918-3.4746-1.0318-0.90879-2.0613-1.5533-3.0898-2.0664-1.0311-0.5153-2.0609-0.85437-3.0898-1.084-1.0317-0.2572-2.0602-0.49249-3.0898-0.69531-4.1196-0.86232-8.238-1.0775-12.355-0.9082-4.1176 0.19939-8.2367 0.29822-12.355 0.84961-4.1168 0.51872-8.2349 1.4111-12.352 2.1797-6.1807 1.0653-12.357 2.1592-18.539 1.0898l2e-3 -0.99024c-1.8e-4 -0.0862-0.0136-0.17062-0.0391-0.25195-1.9e-4 -6.1e-4 1.9e-4 -1e-3 0-2e-3v-0.2793c-6.3e-4 -0.69613-0.86545-1.2572-1.9297-1.2559-0.92805 8.3e-4 -1.7042 0.42997-1.8848 1.002v-0.17968c-1.4e-4 -0.0953-0.0159-0.18734-0.041-0.27735-3.5e-4 -1e-3 3.5e-4 -3e-3 0-4e-3v-0.24805c-2e-3 -0.7745-0.86438-1.4004-1.9297-1.4004-1.0658 2e-3 -1.9275 0.62873-1.9277 1.4043l2e-3 0.19531c-1.5333-0.34945-3.0674-0.5237-4.6016-0.60156l-1.7109-0.11914c-0.0529-0.71944-0.11536-1.4376-0.17969-2.1562-1.1885-13.28-4.3144-26.416-9.3613-38.959h-0.11719c-5.5028-13.552-13.262-26.403-23.279-37.977l1.127-1.2969c1.0261-1.1409 1.9871-2.3466 2.8223-3.6797l0.13867 0.13476c0.54799 0.54946 1.5995 0.38356 2.3535-0.37109 0.75211-0.75025 0.92263-1.8055 0.37304-2.3535l-0.68359-0.68554c0.49292 0.49398 1.4995 0.28221 2.2539-0.47071 0.75171-0.75278 0.96322-1.7611 0.4707-2.2539l-1.0723-1.0723c3.613-5.1453 8.7581-8.7533 13.889-12.383 3.4522-2.3697 6.9962-4.6516 10.271-7.1992 3.2987-2.5243 6.2799-5.3696 9.3281-8.1426 3.0287-2.7941 5.7878-5.8617 8.0879-9.3867 0.58358-0.87424 1.1433-1.7685 1.6894-2.6797 0.56385-0.89011 1.052-1.8581 1.416-2.9512 0.36505-1.0912 0.63643-2.2757 0.7207-3.6465 0.11413-1.3421 0.0776-2.8357-0.27344-4.6426-0.38399-1.9468-1.9028-3.5661-3.9668-3.9668-1.8096-0.35226-3.2998-0.38757-4.6426-0.27344-1.3712 0.08546-2.5577 0.35444-3.6484 0.7207-1.0918 0.36506-2.06 0.8503-2.9512 1.416-0.90891 0.54465-1.8043 1.1063-2.6777 1.6895-3.5254 2.3017-6.5929 5.0571-9.3867 8.0859-2.773 3.0519-5.6173 6.0292-8.1445 9.3301-2.5466 3.275-4.8283 6.8182-7.1992 10.271-3.6286 5.1284-7.2355 10.277-12.381 13.891l-1.0723-1.0762c-0.49332-0.49092-1.5018-0.28012-2.2539 0.47266-0.75438 0.75478-0.96478 1.7618-0.47265 2.2539l-0.6836-0.68359c-0.54652-0.54759-1.6044-0.37942-2.3555 0.37109-0.75398 0.75332-0.91908 1.8075-0.37109 2.3555l0.13477 0.13672c-1.3304 0.83638-2.5379 1.7973-3.6816 2.8242l-1.293 1.127c-22.997-19.905-51.04-30.901-79.611-32.978l-0.1211-1.7109c-0.0817-1.5322-0.25587-3.0652-0.60546-4.5996h0.19335c0.77439 4e-4 1.4024-0.86269 1.4024-1.9277 2e-3 -1.0657-0.62677-1.9269-1.4024-1.9277h-0.96679c0.69731-3.99e-4 1.2582-0.86163 1.2578-1.9277-1e-3 -1.0632-0.56281-1.9265-1.2559-1.9277h-1.5215c-1.0829-6.1932 8e-3 -12.385 1.0703-18.576 0.76385-4.117 1.6558-8.2366 2.168-12.354 0.54918-4.1192 0.64291-8.239 0.83984-12.357 0.16706-4.1178-0.0541-8.2351-0.91992-12.352-0.20373-1.031-0.44034-2.062-0.69727-3.0918-0.23172-1.0288-0.57123-2.058-1.0879-3.0879-0.51252-1.0296-1.1572-2.0591-2.0684-3.0879-0.86931-1.03-1.9494-2.0591-3.4766-3.0898-0.82358-0.55199-1.7892-0.84475-2.7676-0.85352zm-10.094 108.83c0.0911 1.071 0.16294 2.1418 0.28321 3.2129 0.0971 0.78798 0.24119 1.5762 0.40039 2.3652h-0.084c-0.77598 1e-3 -1.4023 0.86398-1.4023 1.9297 1e-3 1.0628 0.62836 1.9264 1.4023 1.9277l0.96875-2e-3c-0.69878 1e-3 -1.2598 0.8635-1.2598 1.9277 1e-3 1.0642 0.56276 1.9251 1.2578 1.9277h1.1699c-0.60052 1e-3 -1.0859 0.86456-1.0859 1.9277 0 1.0657 1.1873 1.9277 1.7871 1.9277h0.51563c0.38439 1.5318 0.67278 3.0663 0.83984 4.5996 0.2332 2.0613 0.21553 4.1184 0.13086 6.1797-0.17613 4.1154-0.85472 8.2336-1.7988 12.354-1.2013 6.3232-3.3979 12.645-1.9277 18.969l-1.127 2e-3 0.3457 11.258c-0.11353 0.28875-0.18259 0.62271-0.18164 0.98242 2.2e-4 0.24865 0.037 0.48007 0.0937 0.69727 0.0248 0.24198 0.08 0.46686 0.1582 0.66992l0.15235 5.0098c-2.7395 0.78734-5.403 1.9044-7.9102 3.3984-0.99604-0.67564-2.7385-1.3447-3.2734-1.9746-0.0277-0.0318-0.0584-0.0614-0.0879-0.0918l0.57617-0.57617c0.27432-0.27343 0.32502-0.7067 0.19141-1.166-0.0256-0.47023-0.28017-1.0153-0.73438-1.4688-0.75276-0.74878-1.7603-0.96303-2.252-0.46875l-0.17383 0.17187c-5e-3 -0.11791-0.034-0.24151-0.0703-0.36914-0.0175-0.46875-0.28866-1.0402-0.76953-1.5195-0.75278-0.75225-1.7281-0.99373-2.1816-0.53906l-0.91797 0.91797c-0.29807-0.22468-0.59859-0.4494-0.87695-0.69141-1.4955-7.0785-6.3012-10.843-11.496-14.215h-0.48047c-1.6867-1.0835-3.4025-2.1379-5.0508-3.2598-3.5768-2.2453-6.9699-4.6763-10.008-7.4629-1.5144-1.3965-2.9848-2.8422-4.2754-4.4609-0.96531-1.2018-1.8448-2.4924-2.6562-3.8476l0.36328-0.36328c0.42479-0.42493 0.65211-1.8748-0.0996-2.627-0.75438-0.75318-1.7075-1.0194-2.1309-0.5957l0.82617-0.82813c0.49212-0.49252 0.28053-1.501-0.47265-2.2539-0.75212-0.75052-1.7603-0.96505-2.2539-0.47266l0.68555-0.68359c0.54652-0.54679 0.38222-1.6027-0.3711-2.3555-0.75318-0.75065-1.8073-0.91713-2.3555-0.36914l-0.0606 0.0605c-0.44332-0.67345-0.89727-1.3342-1.3867-1.959-0.67278-0.83945-1.3767-1.6425-2.0664-2.4648 17.843-14.902 39.243-23.353 61.131-25.33zm20.127 0c21.886 1.9786 43.289 10.427 61.129 25.332-0.68825 0.81931-1.3928 1.6238-2.0625 2.4609-0.49252 0.62852-0.9469 1.2866-1.3906 1.959l-0.0605-0.0605c-0.54532-0.54919-1.6003-0.38103-2.3535 0.37109-0.75065 0.75318-0.92144 1.8083-0.37305 2.3555l0.68555 0.68359c-0.49279-0.49279-1.5006-0.27839-2.2539 0.47266-0.75172 0.75398-0.96518 1.7599-0.47266 2.2539l0.82617 0.82813c-0.42212-0.42519-1.3777-0.15797-2.1309 0.59375-0.75331 0.75358-0.52173 2.2034-0.0996 2.627l0.36328 0.36328c-0.81145 1.3568-1.6897 2.6469-2.6562 3.8477-1.2917 1.6213-2.761 3.0664-4.2754 4.4629-3.0353 2.7851-6.4314 5.2168-10.008 7.4629-1.613 1.0982-3.2895 2.1324-4.9414 3.1914h-0.75977c-5.1887 3.3816-9.9859 7.1518-11.469 14.232-0.27871 0.24251-0.57675 0.46935-0.87695 0.69336l-0.91992-0.91602c-0.45053-0.45279-1.4291-0.20942-2.1816 0.54297-0.63542 0.63687-0.89973 1.4295-0.69532 1.9336-1e-3 0.0351 2e-3 0.0677 4e-3 0.10156l-0.31641-0.31641c-0.49334-0.49233-1.5024-0.27737-2.252 0.47461-0.61073 0.61204-0.85703 1.3856-0.66797 1.9199-9e-3 0.29689 0.075 0.56314 0.26367 0.75196l0.49024 0.49023c-0.0459 0.0467-0.0917 0.0931-0.13477 0.14258-0.53154 0.62792-2.2747 1.2992-3.2695 1.9766-2.5108-1.4896-5.1752-2.6018-7.916-3.3828l0.13281-4.6699c0.20514-0.34317 0.33266-0.79684 0.33203-1.2988 0-0.27786-0.0388-0.54087-0.10742-0.7793-0.0297-0.21713-0.0751-0.42614-0.14649-0.61133l0.32422-11.26h-0.95508c1.4624-6.3181-0.73151-12.634-1.9297-18.953-0.94265-4.1196-1.6232-8.237-1.8008-12.355v-2e-3c-0.0832-2.0582-0.10154-4.1174 0.13085-6.1758 0.16707-1.5341 0.45701-3.0667 0.8418-4.5996h0.51367c0.59945-1e-3 1.7871-0.86438 1.7871-1.9297 0-1.0632-0.48622-1.9277-1.0859-1.9277l1.1699 2e-3c0.69838-2e-3 1.2591-0.86571 1.2578-1.9297 0-1.063-0.56316-1.9258-1.2578-1.9258h0.96679c0.77705 0 1.403-0.86544 1.4043-1.9297 0-1.0638-0.63018-1.9251-1.4043-1.9277l-0.082 2e-3c0.16027-0.78904 0.30471-1.5795 0.39844-2.3672 0.12066-1.0706 0.19249-2.141 0.28516-3.2109zm-95.49 39.562c0.82198 0.68971 1.6274 1.3952 2.4668 2.0664 0.62465 0.49065 1.2846 0.94379 1.957 1.3867l-0.0606 0.0605c-0.54812 0.54945-0.38088 1.6031 0.3711 2.3555 0.75291 0.75331 1.8075 0.91833 2.3555 0.36914l0.68359-0.68164c-0.49292 0.49292-0.27906 1.4998 0.47266 2.252 0.75291 0.75292 1.7611 0.96465 2.2539 0.47266l0.82617-0.82617c-0.42359 0.42212-0.15601 1.3775 0.59571 2.1309 0.75211 0.75171 2.2032 0.52258 2.627 0.0977l0.36328-0.36328c1.3553 0.81371 2.6458 1.6933 3.8477 2.6582 1.6202 1.2918 3.0634 2.7609 4.4609 4.2754 2.7866 3.0378 5.2194 6.4288 7.4629 10.01 4.7203 6.9278 8.223 15.071 17.848 17.096 0.17469 0.20202 0.33763 0.4212 0.50195 0.63672l-0.78906 0.79297c-0.23511 0.2356-0.27393 0.61089-0.16015 1.0234 0.0141 0.47023 0.28336 1.0448 0.76562 1.5273 0.49584 0.4954 1.0874 0.76369 1.5644 0.76367-0.17722 0.25972-0.20943 0.61138-0.11132 0.98829 0.0122 0.479 0.27023 1.0437 0.73632 1.5098 0.75332 0.75332 1.7599 0.96593 2.2539 0.47461l0.72656-0.73047c0.10853 0.0995 0.2112 0.21193 0.32227 0.3086 0.58814 0.49816 1.2085 2.0283 1.8398 3.043-1.6226 2.7669-2.8221 5.7159-3.5879 8.7539-1.1831 0.22105-2.8952 0.98561-3.7168 0.91602-0.13551-6e-3 -0.26707-2e-3 -0.39844-6e-3v-0.66407c1.6e-4 -0.0929-0.0179-0.18247-0.0469-0.26953v-0.0976c2e-3 -0.69611-0.86349-1.2592-1.9277-1.2578-1.0642 9.5e-4 -1.9284 0.56442-1.9258 1.2617l-4e-3 0.66016c9.1e-4 -0.64053-0.86455-1.1615-1.9277-1.1602-1.0639-5e-4 -1.9256 0.52051-1.9258 1.1641v1.2969c-0.36807 0.0506-0.74273 0.1069-1.1094 0.13477-8.2406-5.3682-16.477-2.0842-24.711-0.51368-4.1172 0.94857-8.2351 1.6319-12.354 1.8106-2.0593 0.0865-4.117 0.10579-6.1758-0.12305-1.5189-0.16367-3.0384-0.45001-4.5566-0.82812v-0.20703c0-0.0789-0.0164-0.16836-0.0449-0.26367v-0.0547c-5.2e-4 -0.59943-0.86531-1.7865-1.9297-1.7852-0.92176 8.1e-4 -1.6893 0.36645-1.8809 0.85352v-0.6211c-2e-4 -0.0929-0.0177-0.18249-0.0469-0.26953v-0.0449c-3e-3 -0.6961-0.86595-1.2559-1.9316-1.2559-0.91483 8.1e-4 -1.6803 0.41883-1.875 0.98047v-0.37695c0-0.10558-0.0185-0.20585-0.0488-0.30469v-6e-3c-6.8e-4 -0.77451-0.86958-1.3991-1.9297-1.4004-1.0659-2.5e-4 -1.9289 0.62872-1.9277 1.4043v0.084c-0.78773-0.15954-1.5774-0.30306-2.3652-0.40039-1.0417-0.11283-2.086-0.1842-3.1289-0.27344 2.027-21.786 10.461-43.076 25.295-60.834zm170.85 0c14.789 17.706 23.216 38.919 25.277 60.631-1.0663 0.0957-2.1365 0.16747-3.2031 0.28711-0.78672 0.0959-1.5742 0.2414-2.3633 0.40234l-2e-3 -0.084c-6.6e-4 -0.77452-0.86229-1.3985-1.9277-1.3984-1.0642 2e-3 -1.9289 0.62676-1.9277 1.4023v0.9668c5.9e-4 -0.69465-0.86296-1.2572-1.9277-1.2559-1.065 3e-3 -1.9284 0.56405-1.9258 1.2598v1.1719c-2e-3 -0.6001-0.86348-1.086-1.9277-1.0859-1.0658 2e-3 -1.9271 1.1894-1.9277 1.7891l2e-3 0.51562c-1.5327 0.38348-3.0657 0.67613-4.5996 0.84375-2.0574 0.23613-4.1178 0.21698-6.1777 0.13672-4.1182-0.17396-8.2369-0.85096-12.355-1.791-8.2372-1.5563-16.476-4.8261-24.709 0.55664-0.35484-0.0262-0.7166-0.0795-1.0723-0.12695l-2e-3 -0.86523c5.1e-4 -0.0802-0.0118-0.15877-0.0371-0.23438v-0.20312c-2e-3 -0.63944-0.8649-1.1595-1.9297-1.1582-0.92958 8.3e-4 -1.707 0.39809-1.8867 0.92774-9.1e-4 -0.0861-0.015-0.17093-0.041-0.25195v-0.17579c8.4e-4 -0.69463-0.86349-1.2572-1.9277-1.2558-1.0648 9.3e-4 -1.9291 0.56551-1.9277 1.2598l2e-3 1.0312c-0.14692 5e-3 -0.29714 2e-3 -0.44727 0.01-0.82151 0.0699-2.5344-0.69101-3.7148-0.91407-0.76352-2.9922-1.9477-5.8961-3.541-8.6309 0.6444-1.0138 1.2805-2.6017 1.8789-3.1094 0.11107-0.0953 0.21267-0.20536 0.32227-0.30469l0.72656 0.72852c0.49359 0.49252 1.5051 0.2787 2.2539-0.47461 0.60406-0.60257 0.85414-1.3662 0.67773-1.9004 0.0113-0.22329-0.0278-0.42871-0.125-0.59961 0.48876 0.0305 1.116-0.23924 1.6387-0.76172 0.624-0.62433 0.89077-1.4001 0.70703-1.9062 0.0199-0.28499-0.0494-0.53591-0.22265-0.70899l-0.69532-0.69531c0.17221-0.2275 0.34432-0.45674 0.52735-0.66992 9.6243-2.0226 13.131-10.166 17.85-17.096 2.2438-3.5795 4.6752-6.9715 7.4629-10.008 1.3965-1.5145 2.8407-2.9844 4.4609-4.2774 1.2018-0.96491 2.49-1.843 3.8457-2.6582l0.36523 0.36523c0.42479 0.42519 1.874 0.65406 2.627-0.0977 0.75318-0.75438 1.0189-1.7083 0.59375-2.1309l0.83007 0.82617c0.49213 0.49199 1.5006 0.27879 2.2539-0.47266 0.75172-0.75211 0.96429-1.7614 0.4707-2.2539l0.6836 0.68554c0.54652 0.54652 1.6029 0.37832 2.3535-0.375 0.75438-0.75051 0.92152-1.8037 0.375-2.3535l-0.0605-0.0606c0.67238-0.44066 1.3308-0.895 1.957-1.3867 0.83784-0.67118 1.6424-1.3762 2.4629-2.0644zm-85.477 57.076c7.943-7e-3 14.413 6.4272 14.469 14.359-0.51075 7.5134-6.7714 13.475-14.414 13.475-7.9449 0-14.409-6.4421-14.455-14.377 0.51928-7.4992 6.7682-13.451 14.4-13.457zm-85.873 19.203c1.0295-0.0141 2.0599 0.0117 3.0898 0.0527 4.118 0.1776 8.2377 0.85902 12.355 1.8027 8.2358 1.5636 16.469 4.8403 24.707-0.53515 0.35865 0.0269 0.72463 0.0787 1.084 0.12695l2e-3 0.94336c-2.9e-4 0.0521 0.0146 0.10206 0.0254 0.15234v0.20899c1e-3 0.63945 0.86491 1.1602 1.9297 1.1602 0.96834 0 1.7638-0.43352 1.8984-0.9961v0.12891c-1.7e-4 0.0614 0.0146 0.12073 0.0273 0.17969v0.1875c-1e-3 0.69464 0.86349 1.2578 1.9277 1.2578 1.0648 0 1.9297-0.56357 1.9297-1.2578l-4e-3 -1.0313c0.14693-7e-3 0.29909 2e-3 0.44922-8e-3 0.82158-0.0692 2.5346 0.68994 3.7148 0.91407 0.76571 3.012 1.9541 5.936 3.5605 8.6875-0.64344 1.0144-1.2771 2.6012-1.875 3.1094-0.11097 0.0954-0.21266 0.20731-0.32226 0.30664l-0.72656-0.72851c-0.494-0.49207-1.5039-0.27744-2.252 0.47656-0.56469 0.56427-0.82638 1.2726-0.71289 1.7988 1.4e-4 6.1e-4 -1.3e-4 1e-3 0 2e-3 -0.0208 0.26787 0.0346 0.50925 0.16797 0.70117-0.48975-0.0331-1.1198 0.2363-1.6445 0.76172-0.57659 0.57792-0.8515 1.2871-0.74414 1.791-0.0325 0.30555 0.0337 0.57653 0.2168 0.75977l0.74804 0.75c-0.17418 0.23073-0.34792 0.46352-0.5332 0.67969-9.6225 2.0312-13.123 10.178-17.836 17.111-2.2406 3.5815-4.6682 6.9768-7.4531 10.016-1.3951 1.5158-2.8379 2.9869-4.457 4.2812-1.201 0.96598-2.4888 1.8457-3.8438 2.6621l-0.36524-0.36523c-0.42516-0.4249-1.8747-0.65279-2.627 0.0996-0.75257 0.75506-1.0174 1.7107-0.5918 2.1328l-0.83008-0.82617c-0.49254-0.49156-1.5012-0.2775-2.2539 0.47461-0.75105 0.75278-0.96278 1.7618-0.46875 2.2539l-0.68555-0.68359c-0.54699-0.54603-1.6016-0.37896-2.3516 0.375-0.75373 0.75121-0.92006 1.8041-0.37305 2.3535l0.0606 0.0606c-0.67199 0.44128-1.3293 0.8964-1.9551 1.3887-0.83723 0.67196-1.641 1.3794-2.4609 2.0684-14.849-17.746-23.307-39.027-25.355-60.805 1.0683-0.095 2.1403-0.16623 3.209-0.28515 0.78678-0.0952 1.576-0.24013 2.3652-0.40039v0.084c0 0.77452 0.8623 1.402 1.9277 1.4024 1.0642-1e-3 1.9277-0.62677 1.9277-1.4024v-0.96679c-1e-3 0.69464 0.86296 1.2578 1.9277 1.2578 1.065-2e-3 1.9284-0.5621 1.9258-1.2578l0.00197-1.1718c1e-3 0.60012 0.86154 1.0866 1.9258 1.0879 1.0658-1e-3 1.9284-1.1893 1.9297-1.7891v-0.51563c1.533-0.38212 3.0655-0.67162 4.5996-0.83789 1.0288-0.11733 2.0584-0.17146 3.0879-0.18554zm171.85 2e-3c1.0294 0.0139 2.0586 0.0663 3.0879 0.18164 1.522 0.16539 3.0452 0.45332 4.5664 0.83398v0.0391c6e-5 0.0625 0.017 0.13375 0.0352 0.20703l-2e-3 0.27734c0 0.59945 0.86337 1.7871 1.9277 1.7871 0.95342 0 1.7394-0.39024 1.8965-0.90234v0.49804c2.1e-4 0.0676 0.0154 0.13261 0.0312 0.19727v0.29102c3e-3 0.69611 0.86594 1.2565 1.9316 1.2578 0.95451 0 1.741-0.45437 1.8926-1.0527v0.26953c7e-5 0.0789 0.014 0.15517 0.0312 0.23047v0.26172c0 0.77452 0.86763 1.3997 1.9277 1.4024 1.0658 1e-3 1.9297-0.62677 1.9297-1.4024v-0.0859c0.78758 0.16027 1.5775 0.30448 2.3652 0.40235 1.0416 0.11374 2.0842 0.18708 3.127 0.27734-2.0399 21.72-10.448 42.942-25.223 60.66-0.8226-0.68898-1.6268-1.394-2.4668-2.0645-0.62511-0.4901-1.2862-0.94439-1.959-1.3867l0.0605-0.0586c0.54761-0.54997 0.3796-1.6038-0.37305-2.3555-0.75358-0.75263-1.808-0.91685-2.3555-0.36718l-0.6836 0.68359c0.49246-0.49335 0.27773-1.5005-0.47461-2.252-0.75362-0.75225-1.7616-0.96509-2.2539-0.47266l-0.82618 0.82617c0.42323-0.42251 0.15474-1.3763-0.59765-2.1289-0.7528-0.75112-2.2036-0.521-2.627-0.0957l-0.36329 0.36524c-1.356-0.81252-2.6469-1.6924-3.8496-2.6562-1.6214-1.2904-3.0659-2.7582-4.4648-4.2715-2.7893-3.0353-5.224-6.4249-7.4707-10.004-4.7264-6.9236-8.2388-15.064-17.865-17.08-0.17207-0.19864-0.33216-0.41313-0.49414-0.625l0.73438-0.73633c0.20812-0.20818 0.26428-0.52854 0.19726-0.88477 0.0755-0.49959-0.20182-1.1771-0.75781-1.7324-0.494-0.49271-1.0827-0.76162-1.5586-0.76367 0.12693-0.22812 0.15415-0.51714 0.0918-0.82617 0.0509-0.50992-0.20563-1.1499-0.72656-1.6699-0.75399-0.75265-1.7603-0.96442-2.2539-0.47266l-0.72656 0.73047c-0.10862-0.0994-0.2112-0.20998-0.32226-0.30664-0.58894-0.49794-1.2111-2.0289-1.8438-3.043 1.6095-2.7503 2.8028-5.681 3.5664-8.6992 1.1833-0.21999 2.8952-0.98251 3.7168-0.91211 0.14022 6e-3 0.2783 3e-3 0.41406 8e-3l2e-3 0.59571c-6e-5 0.0685 0.0152 0.13572 0.0312 0.20117v0.23438c-3e-3 0.69611 0.86349 1.2589 1.9277 1.2578 1.0642 0 1.9284-0.56245 1.9258-1.2598l4e-3 -0.66015c-1e-3 0.64051 0.86261 1.1602 1.9258 1.1602 1.0638 1e-3 1.9264-0.51657 1.9277-1.1602v-1.2969c0.36813-0.0503 0.74272-0.10521 1.1094-0.13281 8.2358 5.3755 16.475 2.0964 24.711 0.5332 4.118-0.94491 8.2369-1.6239 12.355-1.7988 1.0297-0.0423 2.0585-0.0666 3.0879-0.0527zm-103.19 24.021c2.5095 1.4918 5.1739 2.6072 7.9141 3.3906l-0.14453 4.8203c-0.1608 0.32438-0.26032 0.72508-0.25977 1.1641 8e-5 0.0918 0.0114 0.17921 0.0195 0.26758-2e-3 0.0424-0.0138 0.0799-0.0137 0.12305 0 0.35986 0.0686 0.69363 0.17969 0.98242l-0.33399 11.26h1.0508c-1.4647 6.3251 0.73654 12.645 1.9414 18.969 0.94632 4.1188 1.6313 8.2352 1.8125 12.354v2e-3c0.085 2.0581 0.10557 4.1172-0.125 6.1758-0.16569 1.5342-0.45447 3.0684-0.83789 4.6016h-0.51367c-0.59944 2e-3 -1.7865 0.86437-1.7852 1.9297 9.5e-4 1.0632 0.48816 1.9265 1.0879 1.9258l-1.1699 2e-3c-0.69839 2e-3 -1.2591 0.86574-1.2578 1.9297 9.3e-4 1.063 0.56512 1.9252 1.2598 1.9238l-0.96484 2e-3c-0.77707 6.9e-4 -1.4024 0.86545-1.4023 1.9297 9.3e-4 1.0638 0.63022 1.9264 1.4043 1.9277l0.084-2e-3c-0.15957 0.78918-0.30524 1.5794-0.39844 2.3672-0.1197 1.0707-0.18965 2.1409-0.28125 3.2109-21.888-1.9592-43.3-10.388-61.152-25.277 0.68751-0.81994 1.3935-1.6251 2.0625-2.4629 0.49194-0.62896 0.94359-1.2862 1.3867-1.959l0.0625 0.0586c0.54582 0.5487 1.599 0.37973 2.3516-0.37305 0.74997-0.75385 0.91996-1.8088 0.37109-2.3555l-0.68554-0.68359c0.49321 0.49237 1.4993 0.27906 2.252-0.47266 0.75105-0.75465 0.96366-1.7623 0.4707-2.2559l-0.82617-0.82617c0.4225 0.4248 1.3783 0.15669 2.1309-0.5957 0.75273-0.75424 0.52014-2.2038 0.0977-2.627l-0.36524-0.36523c0.81023-1.3575 1.6889-2.646 2.6543-3.8477 1.2903-1.6224 2.7584-3.069 4.2715-4.4668 3.0328-2.7878 6.4275-5.2234 10.002-7.4727 1.648-1.1242 3.3622-2.1801 5.0488-3.2656h0.55664c5.1917-3.377 9.9913-7.1434 11.48-14.223 0.27893-0.24226 0.57852-0.46963 0.87891-0.69336l0.91797 0.91797c0.45012 0.45319 1.4304 0.2107 2.1836-0.54102 0.57493-0.57523 0.84884-1.2803 0.7461-1.7832 8e-3 -0.0648 9e-3 -0.12631 8e-3 -0.1875l0.2539 0.25195c0.49292 0.49279 1.5017 0.27866 2.252-0.47265 0.55835-0.55855 0.81935-1.2554 0.71679-1.7793 0.0337-0.33829-0.0416-0.64534-0.25195-0.85547l-0.53711-0.53711c0.0426-0.0434 0.085-0.0868 0.125-0.13281 0.53212-0.62745 2.276-1.2961 3.2715-1.9727zm34.539 0c0.99544 0.67652 2.7371 1.3462 3.2715 1.9766 0.0305 0.0351 0.0632 0.0682 0.0957 0.10156l-0.5293 0.52929c-0.23267 0.23233-0.30092 0.58058-0.23633 0.96094-0.0695 0.51572 0.18614 1.1763 0.7207 1.7109 0.75212 0.74945 1.7598 0.96456 2.252 0.4707l0.23633-0.23632c1e-3 0.0621 0.011 0.12609 0.0215 0.1914-0.0912 0.50204 0.18665 1.1953 0.75391 1.7617 0.75211 0.75291 1.7296 0.99722 2.1836 0.54297l0.91797-0.91797c0.29786 0.22493 0.59882 0.4511 0.87695 0.69336 1.4892 7.0798 6.2906 10.846 11.482 14.223h0.67969c1.6528 1.0576 3.3313 2.0891 4.9453 3.1855 3.5789 2.2421 6.9733 4.6712 10.014 7.4551 1.5156 1.3952 2.9872 2.8394 4.2793 4.457 0.96639 1.201 1.8475 2.4911 2.6602 3.8457l-0.36328 0.36328c-0.42447 0.42528-0.65082 1.8755 0.10156 2.627 0.75507 0.75247 1.7099 1.0178 2.1328 0.59375l-0.82617 0.82812c-0.49169 0.49294-0.27729 1.4997 0.47656 2.252 0.75278 0.74985 1.7588 0.96351 2.252 0.4707l-0.6836 0.68555c-0.54604 0.54726-0.38093 1.6014 0.37305 2.3535 0.75386 0.74997 1.8078 0.91761 2.3555 0.36914l0.0605-0.0605c0.44391 0.67305 0.89866 1.3327 1.3887 1.957 0.6735 0.83884 1.3779 1.6411 2.0684 2.4629l2e-3 2e-3c-17.83 14.919-39.224 23.386-61.111 25.383-0.092-1.071-0.16396-2.14-0.28516-3.2109-0.0977-0.78789-0.24244-1.5763-0.40234-2.3652h0.082c0.77598-2e-3 1.4037-0.86396 1.4024-1.9297-2e-3 -1.0628-0.62835-1.9275-1.4024-1.9277l-0.9707 2e-3c0.69878-2e-3 1.2611-0.86544 1.2598-1.9297-2e-3 -1.0642-0.56667-1.9248-1.2617-1.9258l-1.1699 2e-3c0.60052-2e-3 1.0873-0.86652 1.0859-1.9297-9.6e-4 -1.0657-1.1912-1.9245-1.791-1.9238h-0.51368c-0.38575-1.5315-0.6773-3.0665-0.8457-4.5996-0.2351-2.0611-0.21756-4.1183-0.13477-6.1797 0.17248-4.1155 0.84667-8.2347 1.7871-12.355 1.1948-6.3197 3.3834-12.64 1.9141-18.957h1.0332l-0.33594-11.256c0.11373-0.28866 0.1836-0.62465 0.1836-0.98438 0-0.0692-0.0167-0.13006-0.0215-0.19726 5e-3 -0.0702 0.0138-0.13874 0.0137-0.21094 8.6e-4 -0.43188-0.0934-0.82693-0.25-1.1484l-0.14257-4.8203c2.7402-0.78492 5.4056-1.8988 7.9141-3.3906z" fill="#231f20" fill-rule="evenodd" stroke-width="1.3333"/>
</g>
</svg>